<svg width="24" height="24" viewBox="0 0 24 24" fill="none" xmlns="http://www.w3.org/2000/svg">
<path d="M8.46002 12.71L14.12 18.36C14.213 18.4538 14.3236 18.5281 14.4454 18.5789C14.5673 18.6297 14.698 18.6558 14.83 18.6558C14.962 18.6558 15.0927 18.6297 15.2146 18.5789C15.3365 18.5281 15.4471 18.4538 15.54 18.36C15.7263 18.1727 15.8308 17.9192 15.8308 17.655C15.8308 17.3908 15.7263 17.1374 15.54 16.95L10.59 11.95L15.54 7.00002C15.7263 6.81266 15.8308 6.55921 15.8308 6.29502C15.8308 6.03084 15.7263 5.77739 15.54 5.59002C15.4474 5.49554 15.337 5.42037 15.2151 5.36887C15.0932 5.31737 14.9623 5.29057 14.83 5.29003C14.6977 5.29057 14.5668 5.31737 14.445 5.36887C14.3231 5.42037 14.2126 5.49554 14.12 5.59002L8.46002 11.24C8.35851 11.3337 8.2775 11.4473 8.2221 11.5738C8.16669 11.7003 8.13809 11.8369 8.13809 11.975C8.13809 12.1131 8.16669 12.2497 8.2221 12.3762C8.2775 12.5027 8.35851 12.6164 8.46002 12.71V12.71Z" fill="black"/>
</svg>
